<mxfile host="app.diagrams.net" agent="Mozilla/5.0 (Macintosh; Intel Mac OS X 10_15_7) AppleWebKit/537.36 (KHTML, like Gecko) Chrome/127.0.0.0 Safari/537.36" version="24.7.7">
  <diagram name="페이지-1" id="fw9UuDuVN_rB80naxK8s">
    <mxGraphModel dx="988" dy="534" grid="1" gridSize="10" guides="1" tooltips="1" connect="1" arrows="1" fold="1" page="1" pageScale="1" pageWidth="1169" pageHeight="827" math="0" shadow="0">
      <root>
        <mxCell id="0" />
        <mxCell id="1" parent="0" />
        <mxCell id="5jKRoTB6IzOukznULLT--3" value="Client" style="ellipse;whiteSpace=wrap;html=1;" parent="1" vertex="1">
          <mxGeometry x="80" y="40" width="75" height="50" as="geometry" />
        </mxCell>
        <mxCell id="5jKRoTB6IzOukznULLT--7" value="Client" style="ellipse;whiteSpace=wrap;html=1;" parent="1" vertex="1">
          <mxGeometry x="80" y="120" width="75" height="50" as="geometry" />
        </mxCell>
        <mxCell id="5jKRoTB6IzOukznULLT--8" value="Client" style="ellipse;whiteSpace=wrap;html=1;" parent="1" vertex="1">
          <mxGeometry x="80" y="190" width="75" height="50" as="geometry" />
        </mxCell>
        <mxCell id="5jKRoTB6IzOukznULLT--9" value="Client" style="ellipse;whiteSpace=wrap;html=1;" parent="1" vertex="1">
          <mxGeometry x="80" y="364" width="75" height="50" as="geometry" />
        </mxCell>
        <mxCell id="5jKRoTB6IzOukznULLT--10" value="" style="endArrow=none;dashed=1;html=1;dashPattern=1 3;strokeWidth=4;rounded=0;" parent="1" edge="1">
          <mxGeometry width="50" height="50" relative="1" as="geometry">
            <mxPoint x="117" y="350" as="sourcePoint" />
            <mxPoint x="117" y="260" as="targetPoint" />
          </mxGeometry>
        </mxCell>
        <mxCell id="5jKRoTB6IzOukznULLT--12" value="APP Server" style="ellipse;whiteSpace=wrap;html=1;" parent="1" vertex="1">
          <mxGeometry x="450" y="70" width="120" height="80" as="geometry" />
        </mxCell>
        <mxCell id="5jKRoTB6IzOukznULLT--13" value="LB" style="rounded=0;whiteSpace=wrap;html=1;" parent="1" vertex="1">
          <mxGeometry x="240" y="200" width="120" height="60" as="geometry" />
        </mxCell>
        <mxCell id="5jKRoTB6IzOukznULLT--14" value="RDB" style="image;aspect=fixed;perimeter=ellipsePerimeter;html=1;align=center;shadow=0;dashed=0;spacingTop=3;image=img/lib/active_directory/database.svg;" parent="1" vertex="1">
          <mxGeometry x="670" y="131.5" width="266.22" height="197" as="geometry" />
        </mxCell>
        <mxCell id="5jKRoTB6IzOukznULLT--15" value="APP Server" style="ellipse;whiteSpace=wrap;html=1;" parent="1" vertex="1">
          <mxGeometry x="450" y="170" width="120" height="80" as="geometry" />
        </mxCell>
        <mxCell id="5jKRoTB6IzOukznULLT--16" value="APP Server" style="ellipse;whiteSpace=wrap;html=1;" parent="1" vertex="1">
          <mxGeometry x="450" y="270" width="120" height="80" as="geometry" />
        </mxCell>
        <mxCell id="5jKRoTB6IzOukznULLT--18" value="" style="endArrow=classic;html=1;rounded=0;exitX=1;exitY=1;exitDx=0;exitDy=0;entryX=0;entryY=0;entryDx=0;entryDy=0;" parent="1" source="5jKRoTB6IzOukznULLT--3" target="5jKRoTB6IzOukznULLT--13" edge="1">
          <mxGeometry width="50" height="50" relative="1" as="geometry">
            <mxPoint x="170" y="70" as="sourcePoint" />
            <mxPoint x="230" y="220" as="targetPoint" />
          </mxGeometry>
        </mxCell>
        <mxCell id="5jKRoTB6IzOukznULLT--19" value="" style="endArrow=classic;html=1;rounded=0;exitX=1;exitY=0.5;exitDx=0;exitDy=0;entryX=-0.017;entryY=0.367;entryDx=0;entryDy=0;entryPerimeter=0;" parent="1" source="5jKRoTB6IzOukznULLT--7" target="5jKRoTB6IzOukznULLT--13" edge="1">
          <mxGeometry width="50" height="50" relative="1" as="geometry">
            <mxPoint x="170" y="270" as="sourcePoint" />
            <mxPoint x="266" y="387" as="targetPoint" />
          </mxGeometry>
        </mxCell>
        <mxCell id="5jKRoTB6IzOukznULLT--20" value="" style="endArrow=classic;html=1;rounded=0;exitX=1;exitY=0.5;exitDx=0;exitDy=0;entryX=0;entryY=0.5;entryDx=0;entryDy=0;" parent="1" source="5jKRoTB6IzOukznULLT--8" target="5jKRoTB6IzOukznULLT--13" edge="1">
          <mxGeometry width="50" height="50" relative="1" as="geometry">
            <mxPoint x="200" y="300" as="sourcePoint" />
            <mxPoint x="296" y="417" as="targetPoint" />
          </mxGeometry>
        </mxCell>
        <mxCell id="5jKRoTB6IzOukznULLT--21" value="" style="endArrow=classic;html=1;rounded=0;exitX=1;exitY=0.5;exitDx=0;exitDy=0;entryX=0;entryY=1;entryDx=0;entryDy=0;" parent="1" source="5jKRoTB6IzOukznULLT--9" target="5jKRoTB6IzOukznULLT--13" edge="1">
          <mxGeometry width="50" height="50" relative="1" as="geometry">
            <mxPoint x="200" y="355" as="sourcePoint" />
            <mxPoint x="296" y="472" as="targetPoint" />
          </mxGeometry>
        </mxCell>
        <mxCell id="5jKRoTB6IzOukznULLT--22" value="" style="endArrow=classic;html=1;rounded=0;exitX=1;exitY=0.25;exitDx=0;exitDy=0;entryX=0;entryY=0.5;entryDx=0;entryDy=0;" parent="1" source="5jKRoTB6IzOukznULLT--13" target="5jKRoTB6IzOukznULLT--12" edge="1">
          <mxGeometry width="50" height="50" relative="1" as="geometry">
            <mxPoint x="380" y="83" as="sourcePoint" />
            <mxPoint x="476" y="200" as="targetPoint" />
          </mxGeometry>
        </mxCell>
        <mxCell id="5jKRoTB6IzOukznULLT--23" value="" style="endArrow=classic;html=1;rounded=0;exitX=1;exitY=0.5;exitDx=0;exitDy=0;" parent="1" source="5jKRoTB6IzOukznULLT--13" target="5jKRoTB6IzOukznULLT--15" edge="1">
          <mxGeometry width="50" height="50" relative="1" as="geometry">
            <mxPoint x="194" y="133" as="sourcePoint" />
            <mxPoint x="290" y="250" as="targetPoint" />
          </mxGeometry>
        </mxCell>
        <mxCell id="5jKRoTB6IzOukznULLT--24" value="" style="endArrow=classic;html=1;rounded=0;exitX=1;exitY=0.75;exitDx=0;exitDy=0;entryX=0;entryY=0.5;entryDx=0;entryDy=0;" parent="1" source="5jKRoTB6IzOukznULLT--13" target="5jKRoTB6IzOukznULLT--16" edge="1">
          <mxGeometry width="50" height="50" relative="1" as="geometry">
            <mxPoint x="204" y="143" as="sourcePoint" />
            <mxPoint x="300" y="260" as="targetPoint" />
          </mxGeometry>
        </mxCell>
        <mxCell id="5jKRoTB6IzOukznULLT--25" value="" style="endArrow=classic;html=1;rounded=0;exitX=1;exitY=0.5;exitDx=0;exitDy=0;entryX=-0.008;entryY=0.119;entryDx=0;entryDy=0;entryPerimeter=0;" parent="1" source="5jKRoTB6IzOukznULLT--12" target="5jKRoTB6IzOukznULLT--14" edge="1">
          <mxGeometry width="50" height="50" relative="1" as="geometry">
            <mxPoint x="214" y="153" as="sourcePoint" />
            <mxPoint x="310" y="270" as="targetPoint" />
          </mxGeometry>
        </mxCell>
        <mxCell id="5jKRoTB6IzOukznULLT--26" value="" style="endArrow=classic;html=1;rounded=0;exitX=1;exitY=0.5;exitDx=0;exitDy=0;entryX=0;entryY=0.5;entryDx=0;entryDy=0;" parent="1" source="5jKRoTB6IzOukznULLT--15" target="5jKRoTB6IzOukznULLT--14" edge="1">
          <mxGeometry width="50" height="50" relative="1" as="geometry">
            <mxPoint x="224" y="163" as="sourcePoint" />
            <mxPoint x="320" y="280" as="targetPoint" />
          </mxGeometry>
        </mxCell>
        <mxCell id="5jKRoTB6IzOukznULLT--27" value="" style="endArrow=classic;html=1;rounded=0;exitX=1;exitY=0.5;exitDx=0;exitDy=0;entryX=0;entryY=0.805;entryDx=0;entryDy=0;entryPerimeter=0;" parent="1" source="5jKRoTB6IzOukznULLT--16" target="5jKRoTB6IzOukznULLT--14" edge="1">
          <mxGeometry width="50" height="50" relative="1" as="geometry">
            <mxPoint x="234" y="173" as="sourcePoint" />
            <mxPoint x="330" y="290" as="targetPoint" />
          </mxGeometry>
        </mxCell>
        <mxCell id="5jKRoTB6IzOukznULLT--33" value="1" style="ellipse;whiteSpace=wrap;html=1;aspect=fixed;rotation=0;gradientColor=#223548;strokeColor=none;gradientDirection=east;fillColor=#5b738b;rounded=0;pointerEvents=0;fontFamily=Helvetica;fontSize=16;fontColor=#FFFFFF;spacingTop=4;spacingBottom=4;spacingLeft=4;spacingRight=4;points=[];fontStyle=1" parent="1" vertex="1">
          <mxGeometry x="380" y="120" width="30" height="30" as="geometry" />
        </mxCell>
        <mxCell id="5jKRoTB6IzOukznULLT--34" value="2" style="ellipse;whiteSpace=wrap;html=1;aspect=fixed;rotation=0;gradientColor=#223548;strokeColor=none;gradientDirection=east;fillColor=#5b738b;rounded=0;pointerEvents=0;fontFamily=Helvetica;fontSize=16;fontColor=#FFFFFF;spacingTop=4;spacingBottom=4;spacingLeft=4;spacingRight=4;points=[];fontStyle=1" parent="1" vertex="1">
          <mxGeometry x="620" y="95" width="30" height="30" as="geometry" />
        </mxCell>
      </root>
    </mxGraphModel>
  </diagram>
</mxfile>
